<svg width="21" height="20" viewBox="0 0 21 20" fill="none" xmlns="http://www.w3.org/2000/svg">
<path d="M10.5 20C10.2006 20 9.91348 19.8858 9.68789 19.6751C8.83887 18.8804 8.02266 18.1339 7.30078 17.4753L7.29668 17.4709C5.18027 15.5434 3.35508 13.8749 2.08359 12.2327C0.660351 10.3974 0 8.65862 0 6.75741C0 4.90889 0.590625 3.20527 1.66523 1.95829C2.75215 0.693743 4.24512 0 5.86523 0C7.0793 0 8.18672 0.408342 9.16289 1.22064C9.65508 1.62898 10.1021 2.12953 10.4959 2.7135C10.8896 2.12953 11.3367 1.62898 11.8289 1.22064C12.8133 0.408342 13.9207 0 15.1348 0C16.7549 0 18.2479 0.693743 19.3348 1.95829C20.4094 3.20527 21 4.90889 21 6.75741C21 8.65862 20.3396 10.3974 18.9164 12.2327C17.6449 13.8749 15.8197 15.5434 13.7033 17.4709C12.9814 18.1295 12.1611 18.876 11.3121 19.6751C11.0865 19.8858 10.7994 20 10.5 20ZM5.86523 1.31723C4.59375 1.31723 3.4207 1.86169 2.57168 2.84962C1.70625 3.8551 1.23047 5.24259 1.23047 6.75741C1.23047 8.35565 1.78418 9.78705 3.03105 11.3941C4.23281 12.9484 6.0252 14.5818 8.09648 16.4698L8.10059 16.4742C8.82656 17.1372 9.64688 17.8836 10.5 18.6828C11.3613 17.8793 12.1816 17.1328 12.9076 16.4698C14.9789 14.5774 16.7672 12.9484 17.973 11.3941C19.2158 9.78705 19.7736 8.35565 19.7736 6.75741C19.7736 5.24259 19.2979 3.8551 18.4324 2.84962C17.5793 1.86169 16.4062 1.31723 15.1348 1.31723C14.1996 1.31723 13.3424 1.63337 12.5877 2.26125C11.915 2.81888 11.4434 3.5258 11.1686 4.01756C11.025 4.27223 10.7789 4.42151 10.5 4.42151C10.2211 4.42151 9.975 4.26784 9.83145 4.01756C9.55664 3.52141 9.08496 2.81888 8.4123 2.26125C7.65762 1.63337 6.80039 1.31723 5.86523 1.31723Z" fill="white"/>
</svg>
