<svg width="20" height="20" viewBox="0 0 20 20" fill="none" xmlns="http://www.w3.org/2000/svg">
<circle cx="10" cy="10" r="10" fill="#1B9930"/>
<path d="M7.49414 14H6.07617V7.15039L3.98438 7.86523V6.66406L7.3125 5.43945H7.49414V14ZM14.832 7.71875C14.832 8.13672 14.7246 8.50977 14.5098 8.83789C14.2949 9.16211 14.002 9.41797 13.6309 9.60547C14.0762 9.8125 14.418 10.0957 14.6562 10.4551C14.8984 10.8145 15.0195 11.2207 15.0195 11.6738C15.0195 12.4238 14.7656 13.0195 14.2578 13.4609C13.75 13.8984 13.0742 14.1172 12.2305 14.1172C11.3828 14.1172 10.7031 13.8965 10.1914 13.4551C9.68359 13.0137 9.42969 12.4199 9.42969 11.6738C9.42969 11.2168 9.55078 10.8066 9.79297 10.4434C10.0352 10.0801 10.375 9.80078 10.8125 9.60547C10.4453 9.41797 10.1543 9.16211 9.93945 8.83789C9.72852 8.50977 9.62305 8.13672 9.62305 7.71875C9.62305 6.99219 9.85742 6.41602 10.3262 5.99023C10.7949 5.56445 11.4277 5.35156 12.2246 5.35156C13.0254 5.35156 13.6602 5.56445 14.1289 5.99023C14.5977 6.41602 14.832 6.99219 14.832 7.71875ZM13.5957 11.6035C13.5957 11.1816 13.4688 10.8418 13.2148 10.584C12.9648 10.3223 12.6328 10.1914 12.2188 10.1914C11.8047 10.1914 11.4727 10.3203 11.2227 10.5781C10.9766 10.8359 10.8535 11.1777 10.8535 11.6035C10.8535 12.0215 10.9746 12.3555 11.2168 12.6055C11.4629 12.8555 11.8008 12.9805 12.2305 12.9805C12.6602 12.9805 12.9941 12.8594 13.2324 12.6172C13.4746 12.375 13.5957 12.0371 13.5957 11.6035ZM13.4141 7.77148C13.4141 7.40039 13.3066 7.0957 13.0918 6.85742C12.877 6.61523 12.5879 6.49414 12.2246 6.49414C11.8613 6.49414 11.5742 6.60938 11.3633 6.83984C11.1523 7.06641 11.0469 7.37695 11.0469 7.77148C11.0469 8.16211 11.1523 8.47266 11.3633 8.70312C11.5781 8.93359 11.8672 9.04883 12.2305 9.04883C12.5938 9.04883 12.8809 8.93359 13.0918 8.70312C13.3066 8.47266 13.4141 8.16211 13.4141 7.77148Z" fill="white"/>
</svg>
