<svg width="20" height="20" viewBox="0 0 20 20" fill="none" xmlns="http://www.w3.org/2000/svg">
<circle cx="10" cy="10" r="10" fill="#1B9930"/>
<path d="M9.28516 9.08398H10.1523C10.5898 9.08008 10.9355 8.9668 11.1895 8.74414C11.4473 8.52148 11.5762 8.19922 11.5762 7.77734C11.5762 7.37109 11.4688 7.05664 11.2539 6.83398C11.043 6.60742 10.7188 6.49414 10.2812 6.49414C9.89844 6.49414 9.58398 6.60547 9.33789 6.82812C9.0918 7.04688 8.96875 7.33398 8.96875 7.68945H7.54492C7.54492 7.25195 7.66016 6.85352 7.89062 6.49414C8.125 6.13477 8.44922 5.85547 8.86328 5.65625C9.28125 5.45312 9.74805 5.35156 10.2637 5.35156C11.1152 5.35156 11.7832 5.56641 12.2676 5.99609C12.7559 6.42188 13 7.01562 13 7.77734C13 8.16016 12.877 8.52148 12.6309 8.86133C12.3887 9.19727 12.0742 9.45117 11.6875 9.62305C12.1562 9.7832 12.5117 10.0352 12.7539 10.3789C13 10.7227 13.123 11.1328 13.123 11.6094C13.123 12.375 12.8594 12.9844 12.332 13.4375C11.8086 13.8906 11.1191 14.1172 10.2637 14.1172C9.44336 14.1172 8.77148 13.8984 8.24805 13.4609C7.72461 13.0234 7.46289 12.4414 7.46289 11.7148H8.88672C8.88672 12.0898 9.01172 12.3945 9.26172 12.6289C9.51562 12.8633 9.85547 12.9805 10.2812 12.9805C10.7227 12.9805 11.0703 12.8633 11.3242 12.6289C11.5781 12.3945 11.7051 12.0547 11.7051 11.6094C11.7051 11.1602 11.5723 10.8145 11.3066 10.5723C11.041 10.3301 10.6465 10.209 10.123 10.209H9.28516V9.08398Z" fill="white"/>
</svg>
