<svg width="19" height="24" viewBox="0 0 19 24" fill="none" xmlns="http://www.w3.org/2000/svg">
<path d="M6.58519 15.9089L3.30217 17.7022C3.30156 17.7026 3.30095 17.7029 3.30035 17.7032C2.57 18.1136 2.13913 18.8273 2.13913 19.6267V20.7175C2.1869 20.7581 2.27532 20.8163 2.41877 20.8855C2.7168 21.0292 3.18419 21.1884 3.82465 21.3361C5.10094 21.6303 7.01011 21.8667 9.5 21.8667C11.9899 21.8667 13.8991 21.6303 15.1753 21.3361C15.8158 21.1884 16.2832 21.0292 16.5812 20.8855C16.7247 20.8163 16.8131 20.7581 16.8609 20.7175V20.4H16.8978V19.7C16.8978 18.8644 16.4318 18.1219 15.6788 17.7483L12.1309 15.9883C11.4057 15.6286 10.9478 14.9044 10.9478 14.09V12.5867V12.3717L11.1272 12.253L11.1734 12.2224C11.2485 12.1158 11.3423 11.9918 11.4297 11.8762L11.4317 11.8735C11.8463 11.2896 12.1617 10.6315 12.41 9.89261L12.4137 9.8814L12.4181 9.87043L12.4921 9.6871L12.5562 9.52811L12.7155 9.46488L12.9003 9.39154L12.9083 9.38835L12.9083 9.38844C13.0803 9.32445 13.1652 9.19694 13.1652 9.06667V7.6C13.1652 7.52467 13.129 7.43739 13.0248 7.33395L12.9139 7.22395L12.7957 7.10661V6.94V4.59333V4.5718L12.7978 4.55232L12.7978 4.55224L12.7978 4.55203L12.7978 4.55197L12.7979 4.55139L12.7981 4.54851C12.7985 4.54422 12.799 4.53638 12.7997 4.52528C12.8009 4.50306 12.8023 4.468 12.802 4.42243C12.8015 4.33095 12.7947 4.19927 12.7688 4.04543C12.7172 3.73776 12.5927 3.359 12.3084 3.02932C11.7838 2.4829 10.8773 2.13333 9.5 2.13333C8.11249 2.13333 7.21958 2.48761 6.73757 3.05551L6.73434 3.05931L6.73432 3.05929C6.44599 3.39053 6.32015 3.77234 6.26811 4.0821C6.24227 4.23594 6.23543 4.36761 6.23495 4.4591C6.23471 4.50467 6.23604 4.53972 6.23729 4.56195C6.23791 4.57304 6.2385 4.58088 6.23886 4.58518L6.23902 4.58734L6.23916 4.58863L6.23917 4.58869L6.23919 4.58891L6.2413 4.60846V4.63V4.66667V6.90333V7.06994L6.12303 7.18729L6.01216 7.29729L5.99645 7.31288L5.97911 7.32664C5.90085 7.38876 5.87174 7.45073 5.87174 7.56333V9.03C5.87174 9.15796 5.91981 9.25012 6.02502 9.31971M6.58519 15.9089L6.02502 9.31971M6.58519 15.9089C7.27656 15.5419 7.68261 14.8152 7.68261 14.0533V12.5867V12.4648L7.61462 12.3636L7.54071 12.2536L7.52876 12.2358L7.51536 12.2198L7.51532 12.2198L7.5152 12.2197L7.5151 12.2195L7.51499 12.2194M6.58519 15.9089L7.51499 12.2194M6.02502 9.31971L6.13589 9.39304L6.26521 9.47858L6.30309 9.62893L6.34005 9.7756L6.34289 9.78689L6.34273 9.78692C6.49716 10.4849 6.79085 11.0959 7.04986 11.5358C7.17874 11.7547 7.29742 11.9285 7.38296 12.0465C7.42568 12.1054 7.45999 12.1502 7.483 12.1795C7.4945 12.1941 7.50316 12.2049 7.50861 12.2116L7.51435 12.2186L7.51499 12.2194M6.02502 9.31971L7.51499 12.2194M16.8924 20.6862C16.8927 20.6862 16.8915 20.6879 16.8883 20.6915C16.8907 20.688 16.8922 20.6862 16.8924 20.6862ZM2.10755 20.6862C2.10775 20.6862 2.10932 20.6879 2.11166 20.6915C2.10852 20.6879 2.10735 20.6862 2.10755 20.6862ZM5.8647 14.494L5.8492 14.5008L5.83433 14.509L2.5452 16.3056L2.54513 16.3055L2.53585 16.3109C1.34487 17.0036 0.6 18.2698 0.6 19.6267V20.8C0.6 21.4742 1.14102 21.9281 1.73142 22.2275C2.3472 22.5399 3.1758 22.7694 4.06641 22.9392C5.855 23.2801 8.00702 23.4 9.5 23.4C10.993 23.4 13.145 23.2801 14.9336 22.9392C15.8242 22.7694 16.6528 22.5399 17.2686 22.2275C17.859 21.9281 18.4 21.4742 18.4 20.8V19.7C18.4 18.2675 17.6139 16.9891 16.3276 16.3705L12.7906 14.6159C12.5694 14.4912 12.45 14.2868 12.45 14.09V12.9768C12.4628 12.9606 12.4777 12.9418 12.4955 12.9188C12.5428 12.8578 12.6018 12.7778 12.6534 12.6809C13.0787 12.0453 13.4389 11.3751 13.7329 10.641C14.3115 10.324 14.6674 9.70947 14.6674 9.03V7.56333C14.6674 7.14463 14.5192 6.77007 14.2978 6.47025V4.69606C14.3445 4.34912 14.3809 3.09369 13.4245 2.02179C12.6124 1.05116 11.2144 0.6 9.5 0.6C7.77942 0.6 6.38789 1.05411 5.54194 2.01804C4.60687 3.06309 4.65314 4.32652 4.66384 4.61855C4.66462 4.63997 4.66522 4.65617 4.66522 4.66667V6.47167C4.44142 6.78121 4.29565 7.1807 4.29565 7.56333V9.03C4.29565 9.54444 4.52792 10.0526 4.89506 10.3901C5.21947 11.5827 5.81719 12.533 6.14348 12.9501V14.0167C6.14348 14.25 6.03054 14.4209 5.8647 14.494Z" fill="#363532" stroke="white" stroke-width="0.8"/>
</svg>
